<svg xmlns="http://www.w3.org/2000/svg" width="16" height="16"><path d="M3 1C1.355 1 0 2.355 0 4v2h2V4c0-.57.43-1 1-1h6c.57 0 1 .43 1 1v2h5.223c-.551-.61-1.345-1-2.223-1h-1V4c0-1.645-1.355-3-3-3zm4 4c-.878 0-1.672.39-2.223 1H9c0-.55-.45-1-1-1zM.777 10c.551.61 1.345 1 2.223 1h1v1c0 1.645 1.355 3 3 3h6c1.645 0 3-1.355 3-3v-2h-2v2c0 .57-.43 1-1 1H7c-.57 0-1-.43-1-1v-2zM7 10c0 .55.45 1 1 1h1c.878 0 1.672-.39 2.223-1z" style="fill:#bebebe;fill-opacity:.74901962;opacity:.34"/><path fill="#2e3436" d="M3 6a2 2 0 1 0 2 2 2 2 0 0 0-2-2m5 0a2 2 0 1 0 2 2 2 2 0 0 0-2-2m5 0a2 2 0 1 0 2 2 2 2 0 0 0-2-2m0 0"/></svg>