<svg xmlns="http://www.w3.org/2000/svg" width="16" height="16"><path d="M3 1c-.807 0-1.542.327-2.084.854l1.406 1.404A1 1 0 0 1 3 3h6c.57 0 1 .43 1 1v4c0 .57-.43 1-1 1h-.936l1.852 1.854A3.02 3.02 0 0 0 12 8V7h1c.57 0 1 .43 1 1v4c0 .57-.43 1-1 1h-.936l1.854 1.854A3.02 3.02 0 0 0 16 12V8c0-1.645-1.355-3-3-3h-1V4c0-1.645-1.355-3-3-3zM.12 3.178A3 3 0 0 0 0 4v4c0 1.645 1.355 3 3 3h1v1c0 1.645 1.355 3 3 3h4.941l-2-2H7c-.57 0-1-.43-1-1V9.059L4.12 7.178A3 3 0 0 0 4 8v1H3c-.57 0-1-.43-1-1V5.059zM7 5c-.807 0-1.542.327-2.084.854l1.406 1.404A1 1 0 0 1 7 7h1c.55 0 1-.45 1-1s-.45-1-1-1zm.006 5.064a1 1 0 0 0 .93.93z" style="fill:#2e3436;fill-opacity:1"/><path d="M1.531.469.47 1.53l14 14 1.062-1.062z" style="display:inline;fill:#2e3436;fill-opacity:1;fill-rule:nonzero;stroke:none"/></svg>