<svg xmlns="http://www.w3.org/2000/svg" width="16" height="16"><path d="M8 0a1.01 1.01 0 0 0-.773.348A1.01 1.01 0 0 0 7 1.164V4h2V2.086a5.98 5.98 0 0 1 4.855 4.613 5.98 5.98 0 0 1-2.156 6.02l1.424 1.424a8.02 8.02 0 0 0 2.69-7.873A8.01 8.01 0 0 0 8 0M2.549 2.504a1 1 0 0 0-.678.351l-.016.02 1.426 1.426q.061-.08.125-.156a1.006 1.006 0 0 0-.125-1.41 1 1 0 0 0-.732-.231m2.44 1.484c-.407.004-.77.25-.926.625q-.078.196-.07.399l4.816 4.816A2 2 0 0 0 7.485 6.07L5.706 4.293a1 1 0 0 0-.719-.305m-4.04.233a8.01 8.01 0 0 0 .707 8.646 8.01 8.01 0 0 0 10.123 2.184l-1.502-1.502a5.99 5.99 0 0 1-7.039-1.897 5.99 5.99 0 0 1-.785-5.927z"/><path d="M1.153.016.027 1.142l14.84 14.84 1.126-1.127Zm0 0" style="fill:#000;stroke-width:1.05995;fill-opacity:1"/></svg>