<svg xmlns="http://www.w3.org/2000/svg" width="16" height="16"><path d="M7.344.975a1 1 0 0 0-.14.005A7.07 7.07 0 0 0 2.55 3.492L3.979 4.92a5.1 5.1 0 0 1 1.705-1.422q-.095.51-.098 1.033c0 .934.218 1.816.603 2.6l2.678 2.678a5.81 5.81 0 0 0 3.635.51 5.1 5.1 0 0 1-1.422 1.702l1.428 1.428a7.07 7.07 0 0 0 2.512-4.652 1.01 1.01 0 0 0-.457-.957 1 1 0 0 0-1.063-.004 3.9 3.9 0 0 1-2.031.578 3.89 3.89 0 0 1-3.883-3.883c0-.715.203-1.422.578-2.031.203-.324.2-.738-.004-1.062a1.01 1.01 0 0 0-.816-.463m-5.637 3.79a7.072 7.072 0 0 0 9.527 9.528l-1.52-1.52a5 5 0 0 1-1.718.309 5.09 5.09 0 0 1-5.078-5.078c0-.601.112-1.18.309-1.719z"/><path d="m.47 1.53 14 14 1.06-1.06-14-14zm0 0" style="fill:#000;fill-opacity:1;stroke-width:1.00001"/></svg>