<?xml version="1.0" encoding="UTF-8"?>
<svg xmlns="http://www.w3.org/2000/svg" xmlns:xlink="http://www.w3.org/1999/xlink" width="128px" height="128px" viewBox="0 0 128 128" version="1.1">
<defs>
<linearGradient id="linear0" gradientUnits="userSpaceOnUse" x1="88.595886" y1="-449.394012" x2="536.595886" y2="-449.394012" gradientTransform="matrix(0.232143,0,0,0.328947,-8.566925,267.826965)">
<stop offset="0" style="stop-color:rgb(46.666667%,46.27451%,48.235294%);stop-opacity:1;"/>
<stop offset="0.303185" style="stop-color:rgb(75.294119%,74.901962%,73.725492%);stop-opacity:1;"/>
<stop offset="0.551739" style="stop-color:rgb(60.392159%,60.000002%,58.823532%);stop-opacity:1;"/>
<stop offset="0.780296" style="stop-color:rgb(60.392159%,60.000002%,58.823532%);stop-opacity:1;"/>
<stop offset="1" style="stop-color:rgb(75.294119%,74.901962%,73.725492%);stop-opacity:1;"/>
<stop offset="1" style="stop-color:rgb(46.666667%,46.27451%,48.235294%);stop-opacity:1;"/>
</linearGradient>
</defs>
<g id="surface4">
<path style=" stroke:none;fill-rule:nonzero;fill:url(#linear0);" d="M 64 14 C 92.71875 14 116 37.28125 116 66 L 116 68 C 116 96.71875 92.71875 120 64 120 C 35.28125 120 12 96.71875 12 68 L 12 66 C 12 37.28125 35.28125 14 64 14 Z M 64 14 "/>
<path style=" stroke:none;fill-rule:nonzero;fill:rgb(87.058824%,86.666667%,85.490197%);fill-opacity:1;" d="M 64 12 C 92.71875 12 116 35.28125 116 64 C 116 92.71875 92.71875 116 64 116 C 35.28125 116 12 92.71875 12 64 C 12 35.28125 35.28125 12 64 12 Z M 64 12 "/>
<path style=" stroke:none;fill-rule:nonzero;fill:rgb(60.392159%,60.000002%,58.823532%);fill-opacity:1;" d="M 64.917969 34.023438 C 69.285156 34.25 73.523438 36.054688 76.730469 39.265625 C 81.867188 44.402344 83.414062 52.171875 80.636719 58.882812 C 78.652344 63.667969 74.722656 67.238281 70.003906 68.917969 L 70.003906 75.996094 L 58.003906 75.996094 L 58.003906 63.996094 C 58.003906 60.679688 60.6875 57.992188 64.003906 57.992188 C 66.445312 57.992188 68.613281 56.550781 69.546875 54.289062 C 70.484375 52.03125 69.972656 49.476562 68.246094 47.75 C 66.515625 46.019531 63.964844 45.511719 61.707031 46.449219 C 59.449219 47.382812 58.003906 49.546875 58.003906 51.992188 L 46 51.992188 C 46 44.726562 50.398438 38.140625 57.109375 35.359375 C 59.628906 34.316406 62.296875 33.890625 64.917969 34.023438 Z M 64.003906 81.996094 C 67.316406 81.996094 70.003906 84.683594 70.003906 88 C 70.003906 91.3125 67.316406 94 64.003906 94 C 60.6875 94 58.003906 91.3125 58.003906 88 C 58.003906 84.683594 60.6875 81.996094 64.003906 81.996094 Z M 64.003906 81.996094 "/>
<path style="fill:none;stroke-width:4;stroke-linecap:round;stroke-linejoin:miter;stroke:rgb(60.392159%,60.000002%,58.823532%);stroke-opacity:1;stroke-miterlimit:4;" d="M 109.988281 236 C 109.988281 261.398438 89.398438 281.988281 64 281.988281 C 38.601562 281.988281 18.011719 261.398438 18.011719 236 C 18.011719 210.601562 38.601562 190.011719 64 190.011719 C 89.398438 190.011719 109.988281 210.601562 109.988281 236 Z M 109.988281 236 " transform="matrix(1,0,0,1,0,-172)"/>
</g>
</svg>
