<?xml version="1.0" encoding="UTF-8"?>
<svg xmlns="http://www.w3.org/2000/svg" xmlns:xlink="http://www.w3.org/1999/xlink" width="16px" height="16px" viewBox="0 0 16 16" version="1.1">
<g id="surface34">
<path style=" stroke:none;fill-rule:nonzero;fill:rgb(18.039216%,20.392157%,21.176471%);fill-opacity:1;" d="M 8 0 C 3.582031 0 0 3.582031 0 8 C 0 12.417969 3.582031 16 8 16 C 12.417969 16 16 12.417969 16 8 C 16 3.582031 12.417969 0 8 0 Z M 8.152344 3.007812 C 8.878906 3.042969 9.585938 3.34375 10.121094 3.878906 C 10.976562 4.734375 11.234375 6.03125 10.769531 7.148438 C 10.441406 7.945312 9.785156 8.539062 9 8.820312 L 9 10 L 7 10 L 7 8 C 7 7.449219 7.449219 7 8 7 C 8.40625 7 8.769531 6.757812 8.925781 6.382812 C 9.078125 6.007812 8.996094 5.582031 8.707031 5.292969 C 8.417969 5.003906 7.992188 4.921875 7.617188 5.074219 C 7.242188 5.230469 7 5.59375 7 6 L 5 6 C 5 4.789062 5.734375 3.691406 6.851562 3.230469 C 7.269531 3.054688 7.714844 2.984375 8.152344 3.007812 Z M 8 11 C 8.550781 11 9 11.449219 9 12 C 9 12.550781 8.550781 13 8 13 C 7.449219 13 7 12.550781 7 12 C 7 11.449219 7.449219 11 8 11 Z M 8 11 "/>
</g>
</svg>
