<?xml version="1.0" encoding="UTF-8" standalone="no"?>
<svg
   xmlns:dc="http://purl.org/dc/elements/1.1/"
   xmlns:cc="http://creativecommons.org/ns#"
   xmlns:rdf="http://www.w3.org/1999/02/22-rdf-syntax-ns#"
   xmlns:svg="http://www.w3.org/2000/svg"
   xmlns="http://www.w3.org/2000/svg"
   width="16px"
   height="16px"
   viewBox="0 0 16 16"
   version="1.1"
   id="svg5">
  <metadata
     id="metadata11">
    <rdf:RDF>
      <cc:Work
         rdf:about="">
        <dc:format>image/svg+xml</dc:format>
        <dc:type
           rdf:resource="http://purl.org/dc/dcmitype/StillImage" />
        <dc:title></dc:title>
      </cc:Work>
    </rdf:RDF>
  </metadata>
  <defs
     id="defs9" />
  <path
     style="color:#bebebe;font-style:normal;font-variant:normal;font-weight:normal;font-stretch:normal;font-size:medium;line-height:normal;font-family:sans-serif;font-variant-ligatures:normal;font-variant-position:normal;font-variant-caps:normal;font-variant-numeric:normal;font-variant-alternates:normal;font-feature-settings:normal;text-indent:0;text-align:start;text-decoration:none;text-decoration-line:none;text-decoration-style:solid;text-decoration-color:#000000;letter-spacing:normal;word-spacing:normal;text-transform:none;writing-mode:lr-tb;direction:ltr;text-orientation:mixed;dominant-baseline:auto;baseline-shift:baseline;text-anchor:start;white-space:normal;shape-padding:0;clip-rule:nonzero;display:inline;overflow:visible;visibility:visible;isolation:auto;mix-blend-mode:normal;color-interpolation:sRGB;color-interpolation-filters:linearRGB;solid-color:#000000;solid-opacity:1;vector-effect:none;fill:#2e3436;fill-opacity:1;fill-rule:nonzero;stroke:none;stroke-width:2;stroke-linecap:butt;stroke-linejoin:miter;stroke-miterlimit:4;stroke-dasharray:none;stroke-dashoffset:0;stroke-opacity:1;marker:none;color-rendering:auto;image-rendering:auto;shape-rendering:auto;text-rendering:auto;enable-background:accumulate"
     d="M 4.19707,0 C 2.99547,0 1.9998,1.00125 1.9998,2.20117 V 13.79883 C 1.9998,14.99875 2.99547,16 4.19707,16 h 7.60742 c 1.20159,0 2.19531,-1.00125 2.19531,-2.20117 V 2.20117 C 13.9998,1.00125 13.00608,0 11.80449,0 Z m 0,2 H 4.9998 v 0.25 c 0,0.4155 0.3345,0.75 0.75,0.75 h 4.5 c 0.4155,0 0.75,-0.3345 0.75,-0.75 V 2 h 0.80469 c 0.12379,0 0.19531,0.0703 0.19531,0.20117 v 9.54297 c 0,0.1309 -0.0715,0.20117 -0.19531,0.20117 H 4.19707 c -0.1238,0 -0.19727,-0.0703 -0.19727,-0.20117 V 2.20117 C 3.9998,2.07027 4.07327,2 4.19707,2 Z M 7.9998,12.83594 a 1,1 0 0 1 1,1 1,1 0 0 1 -1,1 1,1 0 0 1 -1,-1 1,1 0 0 1 1,-1 z"
     id="rect4274" />
</svg>
