<?xml version="1.0" encoding="UTF-8"?>
<svg xmlns="http://www.w3.org/2000/svg" xmlns:xlink="http://www.w3.org/1999/xlink" width="16px" height="16px" viewBox="0 0 16 16" version="1.1">
<g id="surface4439">
<path style=" stroke:none;fill-rule:nonzero;fill:rgb(18.039216%,20.392157%,21.176471%);fill-opacity:1;" d="M 4 0 L 4 1 L 12.003906 1 L 12.003906 0 Z M 4 2 L 4 4 L 4.003906 4 L 6 5.996094 L 6 16 L 10.003906 16 L 10.003906 6 L 12.003906 4 L 12.003906 2 Z M 8 7.5 C 8.554688 7.5 9 7.945312 9 8.5 L 9 10.5 C 9 11.054688 8.554688 11.5 8 11.5 C 7.445312 11.5 7 11.054688 7 10.5 L 7 8.5 C 7 7.945312 7.445312 7.5 8 7.5 Z M 8 7.5 "/>
</g>
</svg>