<svg xmlns="http://www.w3.org/2000/svg" width="16" height="16"><path d="M6.93.11a.95.95 0 0 0-1.05.247L.704 6.064A.95.95 0 0 0 .77 7.41a.95.95 0 0 0 1.343-.066l3.522-3.881v11.539a.95.95 0 0 0 .95.953.95.95 0 0 0 .954-.953V.996A.95.95 0 0 0 6.93.11M9.414.045a.95.95 0 0 0-.953.953v14.006a.952.952 0 0 0 1.658.639l5.178-5.707a.95.95 0 0 0-.067-1.346.95.95 0 0 0-1.343.066l-3.522 3.881V.998a.95.95 0 0 0-.95-.953" style="color:#000;fill:#2e3436;fill-rule:evenodd;stroke-linecap:round;stroke-linejoin:round;-inkscape-stroke:none"/></svg>