<svg xmlns="http://www.w3.org/2000/svg" width="16" height="16"><path d="M6.65.047a.95.95 0 0 0-.77.31l-3.075 3.39 1.35 1.349 1.48-1.633v3.113L7.539 8.48V.996A.95.95 0 0 0 6.93.11 1 1 0 0 0 6.65.047M1.8 4.857.703 6.064A.95.95 0 0 0 .77 7.41a.95.95 0 0 0 1.343-.066l1.033-1.139zm3.836 3.836v6.309a.95.95 0 0 0 .95.953.95.95 0 0 0 .954-.953v-4.404zM9.414.045a.95.95 0 0 0-.953.953v8.404l1.904 1.905V.998a.95.95 0 0 0-.95-.953m5.28 8.305a.95.95 0 0 0-.807.306l-2.936 3.237L12.3 13.24l2.998-3.304a.95.95 0 0 0-.067-1.346.95.95 0 0 0-.537-.24M8.46 11.52v3.484a.952.952 0 0 0 1.658.639l1.172-1.293z" style="color:#000;fill:#474747;fill-opacity:1;fill-rule:evenodd;stroke:none;stroke-linecap:round;stroke-linejoin:round;-inkscape-stroke:none"/><path d="m.47 1.53 14 14 1.06-1.06-14-14zm0 0" style="fill:#474747;fill-opacity:1;stroke-width:1.00001"/></svg>