<?xml version="1.0" encoding="UTF-8" standalone="no"?>
<svg
   width="16"
   height="16"
   version="1.1"
   id="svg10"
   xmlns="http://www.w3.org/2000/svg"
   xmlns:svg="http://www.w3.org/2000/svg">
  <defs
     id="defs14" />
  <path
     id="path1112"
     style="color:#bebebe;line-height:normal;font-variant-ligatures:normal;font-variant-position:normal;font-variant-caps:normal;font-variant-numeric:normal;font-variant-alternates:normal;font-feature-settings:normal;text-indent:0;text-align:start;text-decoration-line:none;text-decoration-style:solid;text-decoration-color:#000000;text-transform:none;text-orientation:mixed;shape-padding:0;isolation:auto;mix-blend-mode:normal;fill:#474747;marker:none"
     d="M 8 1 C 8 1 7.2907344 0.9864687 6.5527344 1.3554688 C 5.8137344 1.7254688 5 2.667 5 4 L 5 5 L 4.0136719 5 L 10.013672 11 L 12 11 L 12 5 L 11 5 L 11 4 C 11 2.667 10.186266 1.7254686 9.4472656 1.3554688 C 8.7102656 0.9864687 8 1 8 1 z M 8 3 C 8 3 8.2907344 3.0135312 8.5527344 3.1445312 C 8.8137344 3.2745313 9 3.333 9 4 L 9 5 L 7 5 L 7 4 C 7 3.333 7.1862656 3.2745313 7.4472656 3.1445312 C 7.7102656 3.0135313 8 3 8 3 z M 4 7.1035156 L 4 11 L 7 11 L 7 13 L 2 13 L 2 15 L 11.896484 15 L 9.8964844 13 L 9 13 L 9 12.103516 L 4 7.1035156 z M 12.013672 13 L 14 14.986328 L 14 13 L 12.013672 13 z " />
  <path
     d="M 0.47948165,1.4649729 14.479482,15.465351 15.538076,14.406727 1.5380756,0.40635037 Z m 0,0"
     id="path4-3"
     style="fill:#474747;fill-opacity:1;stroke-width:1.00001" />
</svg>
