<?xml version="1.0" encoding="UTF-8" standalone="no"?>
<svg
   xmlns:dc="http://purl.org/dc/elements/1.1/"
   xmlns:cc="http://creativecommons.org/ns#"
   xmlns:rdf="http://www.w3.org/1999/02/22-rdf-syntax-ns#"
   xmlns:svg="http://www.w3.org/2000/svg"
   xmlns="http://www.w3.org/2000/svg"
   id="svg5"
   version="1.1"
   viewBox="0 0 16 16"
   height="16px"
   width="16px">
  <metadata
     id="metadata11">
    <rdf:RDF>
      <cc:Work
         rdf:about="">
        <dc:format>image/svg+xml</dc:format>
        <dc:type
           rdf:resource="http://purl.org/dc/dcmitype/StillImage" />
        <dc:title></dc:title>
      </cc:Work>
    </rdf:RDF>
  </metadata>
  <defs
     id="defs9" />
  <g
     transform="matrix(-1,0,0,1,24,-280)"
     id="g4213"
     style="display:inline;enable-background:new">
    <title
       id="title4205">phonelink</title>
    <rect
       style="opacity:0.02;fill:none;stroke:none"
       id="rect4207"
       width="16"
       height="16"
       x="8"
       y="280" />
    <path
       style="fill:#2e3436;fill-opacity:1;stroke:none"
       d="m 104,519 c -1.662,0 -3,1.338 -3,3 v 1 h 2 v -1 c 0,-0.554 0.446,-1 1,-1 h 8 c 0.554,0 1,0.446 1,1 v 6 c 0,0.554 -0.446,1 -1,1 h -3 v 2 h 3 c 1.662,0 3,-1.338 3,-3 v -6 c 0,-1.662 -1.338,-3 -3,-3 z m 5,13.02539 V 534 h 3 c 1,0 1,-1 1,-1 0,0 -0.0522,-0.84521 -4,-0.97461 z"
       transform="matrix(-1,0,0,1,124.0004,-238)"
       id="path4211" />
    <path
       style="opacity:1;vector-effect:none;fill:#2e3436;fill-opacity:1;fill-rule:nonzero;stroke:none;stroke-width:20;stroke-linecap:butt;stroke-linejoin:miter;stroke-miterlimit:4;stroke-dasharray:none;stroke-dashoffset:0;stroke-opacity:1;marker:none;marker-start:none;marker-mid:none;marker-end:none;paint-order:normal"
       d="m 21.71915,286 c 0.71002,0 1.28125,0.57123 1.28125,1.28125 v 7.4375 c 0,0.71002 -0.57123,1.28125 -1.28125,1.28125 h -4.4375 c -0.71002,0 -1.28125,-0.57123 -1.28125,-1.28125 v -7.4375 C 16.0004,286.57123 16.57163,286 17.28165,286 h 1.71875 1 z m -0.12891,1 H 21.0004 c 0,0.554 -0.446,1 -1,1 h -1 c -0.554,0 -1,-0.446 -1,-1 h -0.58984 c -0.22771,0 -0.41016,0.18245 -0.41016,0.41016 v 6.16321 c 0,0.22771 0.18245,0.41016 0.41016,0.41016 h 4.17968 c 0.22771,0 0.41016,-0.18245 0.41016,-0.41016 v -6.16321 C 22.0004,287.18245 21.81795,287 21.59024,287 Z"
       id="rect4217" />
  </g>
</svg>
