<svg xmlns="http://www.w3.org/2000/svg" width="16" height="16"><path fill="#222" d="M3.012 0A3.026 3.026 0 0 0 0 3.012v8.976A3.026 3.026 0 0 0 3.012 15c.55 0 1-.45 1-1s-.45-1-1-1A.988.988 0 0 1 2 11.988V3.012A.988.988 0 0 1 3.012 2h5.976A.988.988 0 0 1 10 3.012V5c0 .55.45 1 1 1s1-.45 1-1V3.012A3.026 3.026 0 0 0 8.988 0Zm6.031 7c-.566 0-1.02.426-1.043.965h-.988A2.009 2.009 0 0 0 5 9.977v4.011C5 15.102 5.898 16 7.012 16h5.976A2.009 2.009 0 0 0 15 13.988V9.977a2.009 2.009 0 0 0-2.012-2.012H12c-.023-.54-.477-.965-1.043-.965ZM10 10c1.106 0 2 .894 2 2 0 1.105-.894 2-2 2-1.105 0-2-.894-2-2 0-1.105.894-2 2-2z" style="fill:#222;fill-opacity:1;stroke-width:1"/></svg>